<mxfile host="app.diagrams.net" modified="2021-06-09T03:47:52.252Z" agent="5.0 (Macintosh; Intel Mac OS X 10_14_6) AppleWebKit/537.36 (KHTML, like Gecko) Chrome/91.0.4472.77 Safari/537.36" etag="rkTFw9osCS8XGBk5xZ3c" version="14.7.6" type="github" pages="6">
  <diagram id="piDafpqhtRUU5qUU-vj8" name="Homepage">
    <mxGraphModel dx="2066" dy="1154" grid="1" gridSize="10" guides="1" tooltips="1" connect="1" arrows="1" fold="1" page="1" pageScale="1" pageWidth="827" pageHeight="1169" math="0" shadow="0">
      <root>
        <mxCell id="0" />
        <mxCell id="1" parent="0" />
        <mxCell id="8962rQQDY3VNNf6We3Pp-1" value="" style="strokeWidth=1;shadow=0;dashed=0;align=center;html=1;shape=mxgraph.mockup.containers.browserWindow;rSize=0;strokeColor2=#008cff;strokeColor3=#c4c4c4;mainText=,;recursiveResize=0;strokeColor=#FFFFFF;fontColor=#FFFFFF;" parent="1" vertex="1">
          <mxGeometry x="10" y="20" width="1150" height="830" as="geometry" />
        </mxCell>
        <mxCell id="oxoBNMDl2qT9cO-yCX95-5" value="" style="rounded=0;whiteSpace=wrap;html=1;fillColor=none;" vertex="1" parent="8962rQQDY3VNNf6We3Pp-1">
          <mxGeometry x="10" y="170" width="1100" height="590" as="geometry" />
        </mxCell>
        <mxCell id="8962rQQDY3VNNf6We3Pp-2" value="Homepage" style="strokeWidth=1;shadow=0;dashed=0;align=center;html=1;shape=mxgraph.mockup.containers.anchor;fontSize=17;fontColor=#666666;align=left;" parent="8962rQQDY3VNNf6We3Pp-1" vertex="1">
          <mxGeometry x="60" y="12" width="110" height="26" as="geometry" />
        </mxCell>
        <mxCell id="8962rQQDY3VNNf6We3Pp-3" value="https://www.example.com" style="strokeWidth=1;shadow=0;dashed=0;align=center;html=1;shape=mxgraph.mockup.containers.anchor;rSize=0;fontSize=17;fontColor=#666666;align=left;" parent="8962rQQDY3VNNf6We3Pp-1" vertex="1">
          <mxGeometry x="130" y="60" width="250" height="26" as="geometry" />
        </mxCell>
        <mxCell id="8962rQQDY3VNNf6We3Pp-14" value="Login/Logout" style="rounded=1;align=center;strokeColor=none;html=1;fontColor=#ffffff;fontSize=12;fillColor=#008CFF;" parent="8962rQQDY3VNNf6We3Pp-1" vertex="1">
          <mxGeometry x="1045" y="127" width="86" height="33" as="geometry" />
        </mxCell>
        <mxCell id="8962rQQDY3VNNf6We3Pp-16" value="Navy" style="text;html=1;strokeColor=none;fillColor=none;align=center;verticalAlign=middle;whiteSpace=wrap;rounded=0;fontSize=13;fontColor=#0066CC;" parent="8962rQQDY3VNNf6We3Pp-1" vertex="1">
          <mxGeometry x="140" y="130" width="100" height="20" as="geometry" />
        </mxCell>
        <mxCell id="seymav8gBYocV3_De4xC-2" value="d" style="text;html=1;align=center;verticalAlign=middle;resizable=0;points=[];autosize=1;fontSize=37;fontFamily=Tahoma;fillColor=#008CFF;fontColor=#FFFFFF;" parent="8962rQQDY3VNNf6We3Pp-1" vertex="1">
          <mxGeometry x="100" y="110" width="40" height="50" as="geometry" />
        </mxCell>
        <mxCell id="oxoBNMDl2qT9cO-yCX95-4" value="" style="shape=image;html=1;verticalAlign=top;verticalLabelPosition=bottom;labelBackgroundColor=#ffffff;imageAspect=0;aspect=fixed;image=https://cdn1.iconfinder.com/data/icons/ios-11-glyphs/30/qr_code-128.png" vertex="1" parent="8962rQQDY3VNNf6We3Pp-1">
          <mxGeometry x="345" y="220" width="460" height="460" as="geometry" />
        </mxCell>
        <mxCell id="BdVH3W4NMXDDYTGHT0NP-5" value="Help" style="rounded=0;whiteSpace=wrap;html=1;fontColor=#000000;fillColor=#EEEEEE;strokeColor=none;" vertex="1" parent="8962rQQDY3VNNf6We3Pp-1">
          <mxGeometry x="810" y="130" width="100" height="30" as="geometry" />
        </mxCell>
        <mxCell id="NPCmjmJk5aaNpbDx5N5E-20" value="" style="strokeWidth=1;html=1;shadow=0;dashed=0;shape=mxgraph.android.rrect;rSize=0;fillColor=#eeeeee;strokeColor=none;" vertex="1" parent="1">
          <mxGeometry x="300" y="150" width="520" height="30" as="geometry" />
        </mxCell>
        <mxCell id="NPCmjmJk5aaNpbDx5N5E-21" value="Home" style="strokeWidth=1;html=1;shadow=0;dashed=0;shape=mxgraph.android.anchor;fontStyle=1;fontColor=#666666;" vertex="1" parent="NPCmjmJk5aaNpbDx5N5E-20">
          <mxGeometry width="130" height="30" as="geometry" />
        </mxCell>
        <mxCell id="NPCmjmJk5aaNpbDx5N5E-24" value="Scanned Order" style="strokeWidth=1;html=1;shadow=0;dashed=0;shape=mxgraph.android.anchor;fontStyle=1;fontColor=#666666;" vertex="1" parent="NPCmjmJk5aaNpbDx5N5E-20">
          <mxGeometry x="260" width="130" height="30" as="geometry" />
        </mxCell>
        <mxCell id="NPCmjmJk5aaNpbDx5N5E-25" value="History" style="strokeWidth=1;html=1;shadow=0;dashed=0;shape=mxgraph.android.anchor;fontStyle=1;fontColor=#666666;" vertex="1" parent="NPCmjmJk5aaNpbDx5N5E-20">
          <mxGeometry x="390" width="130" height="30" as="geometry" />
        </mxCell>
        <mxCell id="NPCmjmJk5aaNpbDx5N5E-28" value="Create Order" style="strokeWidth=1;html=1;shadow=0;dashed=0;shape=mxgraph.android.anchor;fontStyle=1;fontColor=#666666;" vertex="1" parent="NPCmjmJk5aaNpbDx5N5E-20">
          <mxGeometry x="130" width="130" height="30" as="geometry" />
        </mxCell>
      </root>
    </mxGraphModel>
  </diagram>
  <diagram id="sODP7Z01xXQHnHEM5poL" name="Order Form">
    <mxGraphModel dx="2066" dy="1154" grid="1" gridSize="10" guides="1" tooltips="1" connect="1" arrows="1" fold="1" page="1" pageScale="1" pageWidth="827" pageHeight="1169" math="0" shadow="0">
      <root>
        <mxCell id="1aRGjOs07XrOJyvaGJ07-0" />
        <mxCell id="1aRGjOs07XrOJyvaGJ07-1" parent="1aRGjOs07XrOJyvaGJ07-0" />
        <mxCell id="txpYyNO234JPbyZdmjGg-0" value="" style="strokeWidth=1;shadow=0;dashed=0;align=center;html=1;shape=mxgraph.mockup.containers.browserWindow;rSize=0;strokeColor2=#008cff;strokeColor3=#c4c4c4;mainText=,;recursiveResize=0;strokeColor=#FFFFFF;fontColor=#FFFFFF;" vertex="1" parent="1aRGjOs07XrOJyvaGJ07-1">
          <mxGeometry x="10" y="20" width="1150" height="1110" as="geometry" />
        </mxCell>
        <mxCell id="txpYyNO234JPbyZdmjGg-1" value="" style="rounded=0;whiteSpace=wrap;html=1;fillColor=none;" vertex="1" parent="txpYyNO234JPbyZdmjGg-0">
          <mxGeometry x="10" y="170" width="1100" height="900" as="geometry" />
        </mxCell>
        <mxCell id="txpYyNO234JPbyZdmjGg-2" value="Homepage" style="strokeWidth=1;shadow=0;dashed=0;align=center;html=1;shape=mxgraph.mockup.containers.anchor;fontSize=17;fontColor=#666666;align=left;" vertex="1" parent="txpYyNO234JPbyZdmjGg-0">
          <mxGeometry x="60" y="12" width="110" height="26" as="geometry" />
        </mxCell>
        <mxCell id="txpYyNO234JPbyZdmjGg-3" value="https://www.example.com" style="strokeWidth=1;shadow=0;dashed=0;align=center;html=1;shape=mxgraph.mockup.containers.anchor;rSize=0;fontSize=17;fontColor=#666666;align=left;" vertex="1" parent="txpYyNO234JPbyZdmjGg-0">
          <mxGeometry x="130" y="60" width="250" height="26" as="geometry" />
        </mxCell>
        <mxCell id="txpYyNO234JPbyZdmjGg-4" value="Login/Logout" style="rounded=1;align=center;strokeColor=none;html=1;fontColor=#ffffff;fontSize=12;fillColor=#008CFF;" vertex="1" parent="txpYyNO234JPbyZdmjGg-0">
          <mxGeometry x="1045" y="127" width="86" height="33" as="geometry" />
        </mxCell>
        <mxCell id="txpYyNO234JPbyZdmjGg-5" value="Navy" style="text;html=1;strokeColor=none;fillColor=none;align=center;verticalAlign=middle;whiteSpace=wrap;rounded=0;fontSize=13;fontColor=#0066CC;" vertex="1" parent="txpYyNO234JPbyZdmjGg-0">
          <mxGeometry x="140" y="130" width="100" height="20" as="geometry" />
        </mxCell>
        <mxCell id="txpYyNO234JPbyZdmjGg-6" value="d" style="text;html=1;align=center;verticalAlign=middle;resizable=0;points=[];autosize=1;fontSize=37;fontFamily=Tahoma;fillColor=#008CFF;fontColor=#FFFFFF;" vertex="1" parent="txpYyNO234JPbyZdmjGg-0">
          <mxGeometry x="100" y="110" width="40" height="50" as="geometry" />
        </mxCell>
        <mxCell id="txpYyNO234JPbyZdmjGg-8" value="Help" style="rounded=0;whiteSpace=wrap;html=1;fontColor=#000000;fillColor=#EEEEEE;strokeColor=none;" vertex="1" parent="txpYyNO234JPbyZdmjGg-0">
          <mxGeometry x="810" y="130" width="100" height="30" as="geometry" />
        </mxCell>
        <mxCell id="txpYyNO234JPbyZdmjGg-14" value="Destination" style="fillColor=none;strokeColor=none;align=left;fontSize=14;fontColor=#000000;" vertex="1" parent="txpYyNO234JPbyZdmjGg-0">
          <mxGeometry x="140" y="290" width="260" height="40" as="geometry" />
        </mxCell>
        <mxCell id="txpYyNO234JPbyZdmjGg-16" value="Order Recipient" style="fillColor=none;strokeColor=none;align=left;fontSize=14;fontColor=#000000;" vertex="1" parent="txpYyNO234JPbyZdmjGg-0">
          <mxGeometry width="260" height="40" relative="1" as="geometry">
            <mxPoint x="140" y="370" as="offset" />
          </mxGeometry>
        </mxCell>
        <mxCell id="txpYyNO234JPbyZdmjGg-17" value="Rank, Name (preset)" style="html=1;shadow=0;dashed=0;shape=mxgraph.bootstrap.rrect;rSize=5;fillColor=none;strokeColor=#999999;align=left;spacing=15;fontSize=14;fontColor=#6C767D;" vertex="1" parent="txpYyNO234JPbyZdmjGg-0">
          <mxGeometry width="800" height="30" relative="1" as="geometry">
            <mxPoint x="140" y="410" as="offset" />
          </mxGeometry>
        </mxCell>
        <mxCell id="txpYyNO234JPbyZdmjGg-28" value="Contents" style="fillColor=none;strokeColor=none;align=left;fontSize=14;fontColor=#000000;" vertex="1" parent="txpYyNO234JPbyZdmjGg-0">
          <mxGeometry width="260" height="40" relative="1" as="geometry">
            <mxPoint x="140" y="450" as="offset" />
          </mxGeometry>
        </mxCell>
        <mxCell id="txpYyNO234JPbyZdmjGg-29" value="- Contents&lt;br&gt;- Contents&lt;br&gt;- Contents" style="html=1;shadow=0;dashed=0;shape=mxgraph.bootstrap.rrect;rSize=5;fillColor=none;strokeColor=#999999;align=left;spacing=15;fontSize=14;fontColor=#6C767D;" vertex="1" parent="txpYyNO234JPbyZdmjGg-0">
          <mxGeometry width="800" height="90" relative="1" as="geometry">
            <mxPoint x="140" y="490" as="offset" />
          </mxGeometry>
        </mxCell>
        <mxCell id="txpYyNO234JPbyZdmjGg-30" value="Order Form" style="text;html=1;strokeColor=none;fillColor=none;align=center;verticalAlign=middle;whiteSpace=wrap;rounded=0;fontColor=#000000;fontSize=48;" vertex="1" parent="txpYyNO234JPbyZdmjGg-0">
          <mxGeometry x="390" y="200" width="370" height="60" as="geometry" />
        </mxCell>
        <mxCell id="txpYyNO234JPbyZdmjGg-33" value="Base Name Dropdown" style="rounded=1;fillColor=#F1F2F4;strokeColor=none;html=1;fontColor=#596780;align=left;fontSize=12;spacingLeft=10" vertex="1" parent="txpYyNO234JPbyZdmjGg-0">
          <mxGeometry x="140" y="330" width="800" height="33" as="geometry" />
        </mxCell>
        <mxCell id="txpYyNO234JPbyZdmjGg-34" value="" style="shape=triangle;direction=south;fillColor=#596780;strokeColor=none;html=1" vertex="1" parent="txpYyNO234JPbyZdmjGg-33">
          <mxGeometry x="1" y="0.5" width="12" height="6" relative="1" as="geometry">
            <mxPoint x="-20" y="-3" as="offset" />
          </mxGeometry>
        </mxCell>
        <mxCell id="I3p8gIXxCUTv1_TcTLxq-0" value="Notes" style="fillColor=none;strokeColor=none;align=left;fontSize=14;fontColor=#000000;" vertex="1" parent="txpYyNO234JPbyZdmjGg-0">
          <mxGeometry x="140" y="580" width="260" height="40" as="geometry" />
        </mxCell>
        <mxCell id="I3p8gIXxCUTv1_TcTLxq-1" value="Allergy info" style="html=1;shadow=0;dashed=0;shape=mxgraph.bootstrap.rrect;rSize=5;fillColor=none;strokeColor=#999999;align=left;spacing=15;fontSize=14;fontColor=#6C767D;" vertex="1" parent="txpYyNO234JPbyZdmjGg-0">
          <mxGeometry x="140" y="620" width="800" height="90" as="geometry" />
        </mxCell>
        <mxCell id="txpYyNO234JPbyZdmjGg-36" value="Cancel" style="rounded=1;html=1;shadow=0;dashed=0;whiteSpace=wrap;fontSize=10;fillColor=#E6E6E6;align=center;strokeColor=#B3B3B3;fontColor=#333333;" vertex="1" parent="txpYyNO234JPbyZdmjGg-0">
          <mxGeometry x="559" y="750" width="105.5" height="50" as="geometry" />
        </mxCell>
        <mxCell id="txpYyNO234JPbyZdmjGg-35" value="Submit" style="rounded=1;html=1;shadow=0;dashed=0;whiteSpace=wrap;fontSize=10;fillColor=#666666;align=center;strokeColor=#4D4D4D;fontColor=#ffffff;" vertex="1" parent="txpYyNO234JPbyZdmjGg-0">
          <mxGeometry x="360" y="750" width="105.5" height="50" as="geometry" />
        </mxCell>
        <mxCell id="txpYyNO234JPbyZdmjGg-9" value="" style="strokeWidth=1;html=1;shadow=0;dashed=0;shape=mxgraph.android.rrect;rSize=0;fillColor=#eeeeee;strokeColor=none;" vertex="1" parent="1aRGjOs07XrOJyvaGJ07-1">
          <mxGeometry x="300" y="150" width="520" height="30" as="geometry" />
        </mxCell>
        <mxCell id="txpYyNO234JPbyZdmjGg-10" value="Home" style="strokeWidth=1;html=1;shadow=0;dashed=0;shape=mxgraph.android.anchor;fontStyle=1;fontColor=#666666;" vertex="1" parent="txpYyNO234JPbyZdmjGg-9">
          <mxGeometry width="130" height="30" as="geometry" />
        </mxCell>
        <mxCell id="txpYyNO234JPbyZdmjGg-11" value="Scanned Order" style="strokeWidth=1;html=1;shadow=0;dashed=0;shape=mxgraph.android.anchor;fontStyle=1;fontColor=#666666;" vertex="1" parent="txpYyNO234JPbyZdmjGg-9">
          <mxGeometry x="260" width="130" height="30" as="geometry" />
        </mxCell>
        <mxCell id="txpYyNO234JPbyZdmjGg-12" value="History" style="strokeWidth=1;html=1;shadow=0;dashed=0;shape=mxgraph.android.anchor;fontStyle=1;fontColor=#666666;" vertex="1" parent="txpYyNO234JPbyZdmjGg-9">
          <mxGeometry x="390" width="130" height="30" as="geometry" />
        </mxCell>
        <mxCell id="txpYyNO234JPbyZdmjGg-13" value="Create Order" style="strokeWidth=1;html=1;shadow=0;dashed=0;shape=mxgraph.android.anchor;fontStyle=1;fontColor=#666666;" vertex="1" parent="txpYyNO234JPbyZdmjGg-9">
          <mxGeometry x="130" width="130" height="30" as="geometry" />
        </mxCell>
      </root>
    </mxGraphModel>
  </diagram>
  <diagram id="_dN9YR2VzLGC8Bl7S8WI" name="Scanner Order">
    <mxGraphModel dx="2066" dy="1154" grid="1" gridSize="10" guides="1" tooltips="1" connect="1" arrows="1" fold="1" page="1" pageScale="1" pageWidth="827" pageHeight="1169" math="0" shadow="0">
      <root>
        <mxCell id="YTBq4_NfbmvZNnt-2VEM-0" />
        <mxCell id="YTBq4_NfbmvZNnt-2VEM-1" parent="YTBq4_NfbmvZNnt-2VEM-0" />
      </root>
    </mxGraphModel>
  </diagram>
  <diagram id="ScrbWGpFDLngSkuDm9n3" name="History">
    <mxGraphModel dx="2066" dy="1154" grid="1" gridSize="10" guides="1" tooltips="1" connect="1" arrows="1" fold="1" page="1" pageScale="1" pageWidth="827" pageHeight="1169" math="0" shadow="0">
      <root>
        <mxCell id="wfz-Boy8o7MD-WJyUTDq-0" />
        <mxCell id="wfz-Boy8o7MD-WJyUTDq-1" parent="wfz-Boy8o7MD-WJyUTDq-0" />
      </root>
    </mxGraphModel>
  </diagram>
  <diagram id="FIlHk0ztA-o0Np0L6tZ2" name="Help">
    <mxGraphModel dx="2066" dy="1154" grid="1" gridSize="10" guides="1" tooltips="1" connect="1" arrows="1" fold="1" page="1" pageScale="1" pageWidth="827" pageHeight="1169" math="0" shadow="0">
      <root>
        <mxCell id="C-z0hqbzpoXxbImOT-8w-0" />
        <mxCell id="C-z0hqbzpoXxbImOT-8w-1" parent="C-z0hqbzpoXxbImOT-8w-0" />
      </root>
    </mxGraphModel>
  </diagram>
  <diagram id="yfMzxfQNVY8Ec_oGyCfC" name="Profile">
    <mxGraphModel dx="2066" dy="1154" grid="1" gridSize="10" guides="1" tooltips="1" connect="1" arrows="1" fold="1" page="1" pageScale="1" pageWidth="827" pageHeight="1169" math="0" shadow="0">
      <root>
        <mxCell id="kaY_xF3ZtJ-0qPj2r2me-0" />
        <mxCell id="kaY_xF3ZtJ-0qPj2r2me-1" parent="kaY_xF3ZtJ-0qPj2r2me-0" />
      </root>
    </mxGraphModel>
  </diagram>
</mxfile>
